<?xml version="1.0" encoding="UTF-8" standalone="no" ?>
<!DOCTYPE svg PUBLIC "-//W3C//DTD SVG 1.1//EN" "http://www.w3.org/Graphics/SVG/1.1/DTD/svg11.dtd">
<svg xmlns="http://www.w3.org/2000/svg" xmlns:xlink="http://www.w3.org/1999/xlink" version="1.1" width="1080" height="1080" viewBox="0 0 1080 1080" xml:space="preserve">
<desc>Created with Fabric.js 5.2.4</desc>
<defs>
</defs>
<g transform="matrix(1 0 0 1 540 540)" id="add9fd1d-4516-42fa-9263-5b4aa64a31be"  >
<rect style="stroke: none; stroke-width: 1; stroke-dasharray: none; stroke-linecap: butt; stroke-dashoffset: 0; stroke-linejoin: miter; stroke-miterlimit: 4; fill: rgb(255,255,255); fill-rule: nonzero; opacity: 1; visibility: hidden;" vector-effect="non-scaling-stroke"  x="-540" y="-540" rx="0" ry="0" width="1080" height="1080" />
</g>
<g transform="matrix(1 0 0 1 540 540)" id="664d5871-3f37-4d76-af2c-ecaa4aca8eb7"  >
</g>
<g transform="matrix(9.82 0 0 9.82 540 540)"  >
<g style=""   >
		<g transform="matrix(1 0 0 1 49.48 -3.17)"  >
<path style="stroke: none; stroke-width: 1; stroke-dasharray: none; stroke-linecap: butt; stroke-dashoffset: 0; stroke-linejoin: miter; stroke-miterlimit: 4; fill: rgb(255,255,255); fill-rule: nonzero; opacity: 1;" vector-effect="non-scaling-stroke"  transform=" translate(-104.48, -10.83)" d="M 109.244 18.9176 C 109.244 19.0164 109.244 19.0817 109.211 19.1487 C 108.817 19.7098 108.226 20.4032 107.405 21.2943 C 106.978 21.2616 106.485 20.9308 105.928 20.2709 C 105.368 19.611 105.106 19.049 105.106 18.5867 C 105.106 18.3565 105.172 18.0592 105.302 17.663 C 105.434 17.2669 105.501 16.9696 105.501 16.7385 L 105.533 11.6886 C 105.533 10.0045 105.205 9.14695 104.547 9.14695 C 103.792 9.14695 103.397 9.77335 103.397 10.9952 L 103.298 17.1019 C 103.298 17.5316 103.562 18.1253 104.087 18.8514 C 104.022 19.049 103.759 19.4778 103.234 20.1059 C 102.708 20.7323 102.38 21.0296 102.215 21.0296 L 102.019 21.0296 C 101.592 20.5682 101.165 20.1386 100.738 19.6771 C 100.112 18.9829 99.7514 18.5214 99.7188 18.3238 C 99.8167 18.1253 99.9164 17.8615 100.048 17.4654 C 100.277 16.772 100.376 13.5695 100.409 7.82627 C 100.409 4.19506 100.343 2.14831 100.112 1.68689 C 100.08 1.62073 100.08 1.52191 100.08 1.38959 C 100.112 1.22461 100.178 1.15845 100.277 1.15845 C 100.311 1.15845 100.343 1.15845 100.376 1.19196 C 100.868 1.7857 101.198 2.083 101.361 2.083 C 101.426 2.083 101.82 1.7857 102.478 1.22461 C 103.135 0.663514 103.693 0.366211 104.087 0.366211 C 104.219 0.366211 104.351 0.399722 104.482 0.498537 C 104.448 0.762328 104.251 1.29077 103.857 2.01684 C 103.497 2.67675 103.298 3.43633 103.298 4.29387 L 103.298 6.04418 L 103.298 7.76011 C 103.298 8.25504 103.365 8.51969 103.53 8.51969 C 103.989 8.48618 104.514 8.12358 105.106 7.46281 C 105.697 6.77025 106.091 6.44029 106.222 6.44029 C 106.782 6.44029 107.273 6.73674 107.7 7.36399 C 108.061 7.9586 108.26 8.55235 108.26 9.14695 L 108.325 17.1019 C 108.325 17.4654 108.488 17.8615 108.785 18.2241 C 109.081 18.5867 109.244 18.8187 109.244 18.9176 Z" stroke-linecap="round" />
</g>
		<g transform="matrix(1 0 0 1 41.73 -2.01)"  >
<path style="stroke: none; stroke-width: 1; stroke-dasharray: none; stroke-linecap: butt; stroke-dashoffset: 0; stroke-linejoin: miter; stroke-miterlimit: 4; fill: rgb(255,255,255); fill-rule: nonzero; opacity: 1;" vector-effect="non-scaling-stroke"  transform=" translate(-96.73, -11.99)" d="M 99.9811 7.39763 C 99.9811 7.82726 99.7173 8.09105 99.2258 8.15721 C 98.8314 8.15721 98.4035 8.18986 98.0091 8.18986 C 97.845 8.421 97.7797 8.81712 97.7797 9.37821 L 97.7797 10.4342 L 97.7797 11.4911 C 97.7797 11.9525 97.7462 12.646 97.7462 13.5705 C 97.7127 14.4942 97.7136 15.1876 97.7136 15.6499 C 97.7136 15.8476 97.6809 16.1775 97.6165 16.5736 C 97.5503 17.0033 97.5168 17.3006 97.5168 17.4982 C 97.5168 17.664 97.7797 17.8943 98.3056 18.2243 C 98.8314 18.5551 99.0944 18.7527 99.0944 18.8189 C 99.0944 19.05 98.9285 19.3138 98.5668 19.6773 C 98.3047 19.941 98.0435 20.1722 97.7797 20.436 C 97.7136 20.5357 97.6165 20.6671 97.485 20.8647 C 97.3527 21.0306 97.1885 21.1294 96.9909 21.1294 C 96.6953 20.7333 96.2683 20.3045 95.7098 19.7761 C 94.8883 19.05 94.4295 18.6539 94.3307 18.5551 C 94.6262 17.7628 94.7904 16.9044 94.7904 15.9472 L 94.823 8.421 C 94.823 8.28868 94.6589 8.18986 94.298 8.15721 C 93.9036 8.1237 93.6725 8.09105 93.6407 8.0584 C 93.5092 7.85991 93.4766 7.69493 93.4766 7.49644 C 93.4766 7.33147 93.5754 7.23265 93.7713 7.16649 C 93.9689 7.10033 94.133 7.03502 94.298 6.968 C 95.348 6.47307 95.9727 5.78051 96.136 4.88946 C 96.203 4.59216 96.4006 4.19604 96.7297 3.70111 C 97.0906 3.1065 97.3853 2.84271 97.6483 2.84271 L 97.7462 2.84271 L 97.845 2.84271 C 97.8785 2.84271 97.9438 2.84271 97.9765 2.87536 L 97.9765 6.14397 C 97.9765 6.44042 98.0744 6.67156 98.2721 6.83653 C 98.9612 6.93535 99.5214 7.00151 99.9485 6.968 C 99.9158 7.03502 99.9811 7.16649 99.9811 7.39763 Z" stroke-linecap="round" />
</g>
		<g transform="matrix(1 0 0 1 34.19 -0.36)"  >
<path style="stroke: none; stroke-width: 1; stroke-dasharray: none; stroke-linecap: butt; stroke-dashoffset: 0; stroke-linejoin: miter; stroke-miterlimit: 4; fill: rgb(255,255,255); fill-rule: nonzero; opacity: 1;" vector-effect="non-scaling-stroke"  transform=" translate(-89.19, -13.64)" d="M 93.6441 18.8186 C 92.4617 20.3034 91.7383 21.0295 91.5415 21.0295 C 91.2132 21.0295 90.7862 20.6995 90.2938 20.007 C 89.8006 19.3136 89.505 18.9827 89.3736 18.9827 C 89.1442 18.9827 88.7498 19.3136 88.2565 20.007 C 87.7633 20.6995 87.4033 21.0295 87.173 21.0295 C 86.7133 21.0295 86.2201 20.7657 85.7595 20.2708 C 85.3334 19.8085 85.0378 19.3462 84.9063 18.8186 C 84.8075 18.4225 84.7422 17.9602 84.7422 17.498 C 84.7422 17.2333 84.7748 16.9033 84.8075 16.5072 C 84.8401 15.8147 85.1692 15.1539 85.7595 14.4613 C 86.2863 13.9329 86.8448 13.3718 87.3689 12.8434 L 87.1404 12.5796 C 86.1875 12.2161 85.9245 11.2924 85.9907 10.4005 C 85.9907 10.1367 86.0886 9.67443 86.2536 8.94836 C 86.3189 8.81689 86.0886 8.6184 85.6289 8.35461 C 85.1692 8.08996 84.939 7.85882 84.939 7.62768 C 84.939 7.26507 84.9716 7.03393 85.0704 6.93512 C 85.1692 6.8363 85.366 6.77014 85.6942 6.77014 C 85.9245 6.77014 86.1875 6.90247 86.4177 7.19891 C 86.5819 7.43005 86.7133 7.66119 86.7133 7.82617 C 86.746 8.0238 86.8774 8.12347 87.1069 8.12347 C 87.2057 8.12347 87.3689 8.08996 87.6327 8.05731 C 87.8957 7.99114 88.0598 7.95849 88.1577 7.95849 C 88.6836 7.92498 89.078 7.72735 89.3736 7.36389 C 89.6039 7.00128 89.8333 6.63782 90.0636 6.30786 L 90.3591 6.2417 C 91.0818 6.2417 91.6729 6.57165 92.1662 7.23156 C 92.5597 7.82617 92.7573 8.45342 92.7573 9.11333 L 92.7238 16.3096 C 92.7238 17.168 92.9867 17.9276 93.5779 18.5866 L 93.6441 18.8186 Z M 89.6692 11.1274 L 89.7345 9.60912 C 89.7345 9.37798 89.6039 9.14598 89.3401 8.94836 C 89.078 8.75073 88.8151 8.65105 88.6183 8.65105 C 88.1251 8.65105 87.6989 8.78338 87.3363 9.01452 C 86.9754 9.27831 86.7786 9.64178 86.7786 10.1041 C 86.746 10.6651 86.8774 11.1274 87.1069 11.5235 C 87.3363 11.9197 87.6001 12.1173 87.863 12.0511 C 88.7171 11.9523 89.3074 11.6224 89.6692 11.1274 Z M 89.5712 12.1173 C 89.2421 12.1173 88.8812 12.3484 88.4868 12.7781 C 87.9945 13.3056 87.7307 13.7344 87.6327 14.0979 C 87.6001 14.2293 87.5674 14.7904 87.5674 15.782 C 87.5674 17.3656 87.9283 18.1579 88.6509 18.1579 C 89.4062 18.1579 89.768 17.3321 89.768 15.6488 C 89.768 15.6162 89.768 14.5266 89.7345 12.3484 C 89.7345 12.2161 89.701 12.1173 89.5712 12.1173 Z" stroke-linecap="round" />
</g>
		<g transform="matrix(1 0 0 1 25.66 -0.5)"  >
<path style="stroke: none; stroke-width: 1; stroke-dasharray: none; stroke-linecap: butt; stroke-dashoffset: 0; stroke-linejoin: miter; stroke-miterlimit: 4; fill: rgb(255,255,255); fill-rule: nonzero; opacity: 1;" vector-effect="non-scaling-stroke"  transform=" translate(-80.66, -13.5)" d="M 84.154 9.47637 C 84.154 10.236 83.4958 11.2593 82.182 12.5791 C 80.8674 13.8998 80.2109 14.9232 80.2109 15.6166 C 80.2109 16.3092 80.3424 16.9038 80.638 17.4649 C 80.967 18.1256 81.4594 18.4547 82.0506 18.4547 C 82.4441 18.4547 82.7079 18.2898 82.8712 17.9272 C 83.0361 17.5637 83.2329 17.3987 83.4632 17.3987 C 83.7253 17.3987 83.8911 17.4975 83.8911 17.7295 C 83.8911 17.861 83.8576 17.9925 83.8249 18.1256 C 83.7914 18.1909 83.3979 18.6206 82.6417 19.3458 C 81.8865 20.1054 81.4268 20.5341 81.2944 20.6338 C 81.0324 20.8649 80.7694 20.9638 80.5391 20.9638 C 79.5871 20.9638 78.7983 20.5341 78.1083 19.6757 C 77.4845 18.8835 77.1562 17.9598 77.1562 16.9699 L 77.1889 9.08025 C 77.1889 8.84911 77.7474 8.61883 78.8309 8.45299 C 79.3903 8.35418 79.948 8.09039 80.4412 7.62811 C 80.9335 7.19934 81.2953 6.6709 81.4929 6.1098 C 81.5582 6.07715 81.6235 6.04364 81.6562 6.04364 C 82.0506 6.04364 82.5773 6.50592 83.2338 7.42962 C 83.8258 8.32153 84.154 9.01495 84.154 9.47637 Z M 81.9526 10.8959 C 81.9526 10.5659 81.7885 10.1698 81.4929 9.70751 C 81.1973 9.24609 80.8674 9.01495 80.5391 9.01495 C 80.5065 9.01495 80.4412 9.01495 80.4077 9.0476 C 80.2771 9.24609 80.2444 10.3021 80.2109 12.2165 C 80.2109 12.6127 80.3097 12.8438 80.5391 12.8438 C 80.7041 12.8438 80.9997 12.5791 81.3614 12.018 C 81.755 11.457 81.9526 11.0935 81.9526 10.8959 Z" stroke-linecap="round" />
</g>
		<g transform="matrix(1 0 0 1 11.87 -3.19)"  >
<path style="stroke: none; stroke-width: 1; stroke-dasharray: none; stroke-linecap: butt; stroke-dashoffset: 0; stroke-linejoin: miter; stroke-miterlimit: 4; fill: rgb(255,255,255); fill-rule: nonzero; opacity: 1;" vector-effect="non-scaling-stroke"  transform=" translate(-66.87, -10.81)" d="M 76.0358 10.5 C 76.0358 11.9195 75.577 13.5039 74.7229 15.2207 C 73.8353 16.9702 72.7517 18.3888 71.4706 19.5445 C 70.0588 20.8317 68.6445 21.4589 67.2654 21.4589 C 66.5101 21.4589 65.4919 21.0628 64.2116 20.3367 C 62.9304 19.5772 61.9114 19.2145 61.1561 19.2145 C 60.4988 19.2145 59.9737 19.3134 59.612 19.5445 C 59.5467 19.5772 59.1188 19.908 58.3644 20.5344 C 58.2647 20.6332 58.1667 20.7002 58.0688 20.7002 C 57.8385 20.7002 57.707 20.5679 57.707 20.2714 C 57.707 20.0068 57.97 19.5445 58.5285 18.9172 C 59.1188 18.1912 59.9076 17.4651 60.8932 16.7382 C 61.5831 16.2106 62.0755 15.7483 62.3049 15.3857 C 62.634 14.8908 62.7655 14.2627 62.7655 13.4704 C 62.7655 13.0416 62.4372 12.1833 61.7799 10.8634 C 61.1226 9.54276 60.7952 8.68436 60.7952 8.25559 C 60.7952 7.89213 61.4182 7.29838 62.634 6.40733 C 63.4219 5.87889 64.2434 5.3178 65.0313 4.7567 L 64.6378 4.7567 C 64.2434 4.7567 63.7184 4.82286 63.0611 4.98784 C 61.9449 5.25163 61.0246 5.41661 60.3011 5.41661 C 58.9882 5.41661 58.3309 4.95433 58.3309 4.03063 C 58.3309 3.73333 58.7253 3.00726 59.5132 1.88507 C 60.3011 0.729368 60.8278 0.168274 61.0573 0.168274 C 61.2549 0.168274 61.3855 0.3006 61.3855 0.564391 C 61.3855 0.663206 61.2876 0.960508 61.0573 1.5216 C 61.2222 1.75274 61.682 1.88507 62.3384 1.88507 C 62.9622 1.88507 63.9143 1.78539 65.1637 1.58776 C 65.4257 1.55425 66.0178 1.38928 66.9045 1.12549 C 67.6271 0.927856 68.2175 0.829042 68.678 0.829042 C 69.6309 0.829042 70.3544 0.927856 70.8468 1.15814 C 72.4562 1.85156 73.7365 3.13958 74.6894 5.02049 C 75.6088 6.67112 76.0358 8.51938 76.0358 10.5 Z M 66.7404 10.5335 L 66.773 4.36058 C 66.3786 4.39324 65.8528 4.78935 65.2616 5.51543 C 64.6704 6.2415 64.3757 6.8361 64.3757 7.26487 C 64.3757 7.72715 64.539 8.22294 64.8346 8.71787 C 65.0975 9.14664 65.3931 9.60892 65.656 10.005 C 65.7548 10.2027 65.8854 10.5 66.0831 10.9287 C 66.1157 11.0611 66.2145 11.0937 66.3133 11.0937 C 66.4448 11.0937 66.5754 10.8961 66.7404 10.5335 Z M 66.7077 17.3663 L 66.7404 11.9195 C 66.7404 11.7871 66.7077 11.721 66.6742 11.721 C 66.5754 11.721 66.4122 11.9521 66.181 12.4479 C 66.0504 12.7443 65.9189 13.0416 65.7875 13.339 C 65.0975 14.4938 64.0793 15.5498 62.6993 16.5405 C 64.441 16.6394 65.7875 16.904 66.7077 17.3663 Z M 67.2989 4.39324 L 67.2336 17.6954 C 68.745 18.6208 69.6309 19.0496 69.9592 19.0822 C 70.8133 19.0822 71.4706 18.0262 71.8985 15.8806 C 72.1932 14.4611 72.3247 13.009 72.3247 11.4907 C 72.3247 9.84006 71.9629 8.28824 71.175 6.86875 C 70.2539 5.21812 69.0389 4.36058 67.5618 4.36058 C 67.5283 4.36058 67.4957 4.36058 67.4304 4.39324 L 67.2989 4.39324 Z" stroke-linecap="round" />
</g>
		<g transform="matrix(1 0 0 1 -3.01 -2.97)"  >
<path style="stroke: none; stroke-width: 1; stroke-dasharray: none; stroke-linecap: butt; stroke-dashoffset: 0; stroke-linejoin: miter; stroke-miterlimit: 4; fill: rgb(255,255,255); fill-rule: nonzero; opacity: 1;" vector-effect="non-scaling-stroke"  transform=" translate(-51.99, -11.03)" d="M 56.2307 9.34378 C 56.2307 9.31113 56.1646 9.44431 56.0013 9.74162 C 55.9025 9.90659 55.8681 10.7976 55.8681 12.4809 L 55.8363 17.3658 C 55.8363 17.4646 55.8681 17.6304 55.9016 17.8289 C 55.9343 18.0266 55.9678 18.1915 55.9678 18.2904 C 55.9678 18.5877 55.7049 18.7526 55.1464 18.8515 C 54.7846 18.8841 54.3911 18.9168 53.9975 18.9494 C 53.3075 19.1152 52.8143 19.4778 52.5196 20.1051 C 52.1579 20.8647 51.8949 21.2935 51.7308 21.3923 L 51.3038 21.3923 C 50.0879 21.3923 49.1359 20.8655 48.5112 19.8748 C 47.9862 19.0499 47.7232 17.9269 47.7568 16.5736 L 47.7885 9.44345 C 49.6935 8.65122 50.6456 7.79282 50.6456 6.80296 C 50.6456 5.8784 49.7932 4.52507 48.0515 2.80828 L 48.0515 2.71032 C 48.0515 2.578 48.1821 2.54535 48.4124 2.54535 C 48.5103 2.54535 48.6753 2.578 48.8721 2.67681 C 49.0688 2.74383 49.2347 2.80828 49.3326 2.80828 C 49.4314 2.80828 49.5621 2.61065 49.7588 2.24718 C 50.0218 1.7849 50.2185 1.4223 50.4162 1.22381 C 50.7444 0.861204 51.1396 0.663574 51.5667 0.663574 C 51.6973 0.663574 51.8296 0.697086 51.9611 0.762389 C 51.8296 1.05969 51.7626 1.35614 51.7626 1.61993 C 51.7626 2.28069 53.2414 4.78886 56.2307 9.1788 L 56.2307 9.34378 Z M 51.3038 7.56168 C 51.0082 7.56168 50.8441 7.85899 50.8441 8.48624 L 50.8106 16.6732 C 50.8106 17.2008 50.9747 17.6631 51.2703 18.0919 C 51.5658 18.5215 51.9611 18.7526 52.4534 18.7526 C 52.6176 18.7526 52.7482 18.6865 52.8796 18.5877 C 52.9785 18.3892 53.0111 17.432 53.0111 15.7478 L 53.0446 10.533 C 53.0446 10.3672 53.0438 10.203 53.0111 10.0381 C 52.9785 9.87308 52.7155 9.4108 52.255 8.68473 C 51.6964 7.92601 51.4026 7.56168 51.3038 7.56168 Z" stroke-linecap="round" />
</g>
		<g transform="matrix(1 0 0 1 -10.03 -11.26)"  >
<path style="stroke: none; stroke-width: 1; stroke-dasharray: none; stroke-linecap: butt; stroke-dashoffset: 0; stroke-linejoin: miter; stroke-miterlimit: 4; fill: rgb(255,255,255); fill-rule: nonzero; opacity: 1;" vector-effect="non-scaling-stroke"  transform=" translate(-44.97, -2.74)" d="M 45.2246 3.99788 C 45.1258 4.39399 44.8955 4.6913 44.5337 4.88893 C 44.074 5.15358 43.6143 5.02125 43.3188 4.59162 C 43.1546 4.36048 43.0885 4.09669 43.0558 3.80025 C 43.0232 3.46944 43.1546 3.17299 43.2861 2.87569 C 43.9099 1.8188 44.7967 1.06008 45.979 0.597801 C 46.1431 0.531638 46.3743 0.498987 46.5384 0.466335 C 46.8013 0.432824 46.9654 0.696615 46.8675 0.927755 C 46.8348 1.02657 46.736 1.12624 46.6699 1.19241 C 45.9146 1.8188 45.5193 2.64455 45.2899 3.56825 C 45.2899 3.73409 45.2581 3.86555 45.2246 3.99788 Z" stroke-linecap="round" />
</g>
		<g transform="matrix(1 0 0 1 -10.69 -0.16)"  >
<path style="stroke: none; stroke-width: 1; stroke-dasharray: none; stroke-linecap: butt; stroke-dashoffset: 0; stroke-linejoin: miter; stroke-miterlimit: 4; fill: rgb(255,255,255); fill-rule: nonzero; opacity: 1;" vector-effect="non-scaling-stroke"  transform=" translate(-44.31, -13.84)" d="M 46.6406 18.8519 C 46.5418 19.1165 46.2797 19.6115 45.7865 20.2705 C 45.2615 20.9975 44.9324 21.3609 44.7356 21.3274 C 44.5715 21.3274 44.0792 20.9313 43.2569 20.1717 C 42.4363 19.413 42.0419 18.9507 42.0419 18.8192 C 42.0419 18.6869 42.1407 18.4231 42.3048 18.027 C 42.4689 17.63 42.5677 17.3662 42.6004 17.2674 C 42.7645 16.6075 42.8633 15.7165 42.896 14.5608 C 42.8633 15.7165 42.8633 14.7911 42.896 11.8206 L 42.896 11.4245 C 42.9286 11.2269 42.9286 11.0945 42.9286 11.0292 C 42.9286 10.7972 42.9286 10.5996 42.896 10.4673 C 42.8633 10.3358 42.6992 10.0712 42.4036 9.70855 C 42.108 9.34509 41.9766 9.04778 41.9766 8.85015 C 41.9766 8.65167 42.2721 8.19024 42.8633 7.43066 C 43.4545 6.70459 43.8154 6.34113 43.9803 6.34113 C 44.2098 6.34113 44.6703 6.63843 45.3921 7.23303 C 46.1156 7.82678 46.4765 8.2229 46.4765 8.45404 C 46.4765 8.58636 46.3777 8.78399 46.2136 9.04778 C 46.0168 9.31243 45.918 9.47741 45.8853 9.60974 C 45.8192 9.87353 45.8192 10.6984 45.7865 12.0853 L 45.7865 14.5608 L 45.7865 17.0698 C 45.7865 17.6635 46.0494 18.2581 46.6406 18.8519 Z" stroke-linecap="round" />
</g>
		<g transform="matrix(1 0 0 1 -18.48 -0.27)"  >
<path style="stroke: none; stroke-width: 1; stroke-dasharray: none; stroke-linecap: butt; stroke-dashoffset: 0; stroke-linejoin: miter; stroke-miterlimit: 4; fill: rgb(255,255,255); fill-rule: nonzero; opacity: 1;" vector-effect="non-scaling-stroke"  transform=" translate(-36.52, -13.73)" d="M 41.5175 18.983 C 40.8275 19.9067 40.2355 20.6336 39.677 21.1612 C 39.6117 21.1612 39.5129 21.1947 39.4476 21.1947 C 39.0205 21.1947 38.5617 20.8313 38.1011 20.1387 C 37.6088 19.4453 37.3458 19.0818 37.2479 19.0818 C 36.8861 19.0818 36.3611 19.4118 35.7365 20.1052 C 35.1126 20.7986 34.7174 21.1286 34.5859 21.1286 C 33.1741 21.1286 32.4515 19.8079 32.4842 17.1347 L 32.4842 14.0646 L 32.4842 10.9945 C 32.4842 10.4669 32.4515 10.1034 32.3527 9.90581 C 32.2874 9.77349 32.0571 9.47619 31.6954 9.01391 C 31.5974 8.88244 31.5312 8.75011 31.5312 8.61779 C 31.5312 8.354 31.795 7.92523 32.3527 7.36413 C 32.8786 6.76953 33.3048 6.40692 33.5677 6.2746 C 34.0274 6.34076 34.4871 6.6372 34.9141 7.16565 C 35.3412 7.69409 35.5715 8.18902 35.5715 8.6513 C 35.5715 8.75011 35.5723 8.84979 35.5397 8.9486 C 35.5062 9.11358 35.5053 9.24505 35.5053 9.27856 C 35.4727 9.5097 35.4735 10.0046 35.4735 10.7969 C 35.4735 11.5229 35.4727 12.6125 35.5053 14.0973 C 35.5388 15.5503 35.5397 16.6389 35.5397 17.3985 C 35.5397 17.9931 35.8353 18.2896 36.4917 18.2896 C 36.9523 18.2896 37.2805 18.0919 37.4773 17.7285 C 37.6088 17.5309 37.6732 15.1542 37.6732 10.5657 C 37.6732 10.2358 37.5091 9.83965 37.2135 9.41002 C 36.9179 8.98125 36.7547 8.61779 36.7547 8.38665 C 36.985 8.09021 37.3123 7.72674 37.772 7.23181 C 38.3632 6.6372 38.7258 6.30811 38.8573 6.30811 C 39.0867 6.30811 39.4149 6.53839 39.8085 6.96802 C 40.0714 7.29797 40.3343 7.59527 40.5973 7.92523 C 41.0896 8.45367 41.3534 8.84979 41.3534 9.11358 C 41.3534 9.24505 41.2546 9.47619 41.0252 9.77349 C 40.7949 10.137 40.6634 10.3681 40.6308 10.4996 C 40.5655 10.6645 40.5646 10.9618 40.5646 11.358 L 40.5328 16.5401 C 40.5328 17.4638 40.8611 18.2234 41.5175 18.7854 L 41.5175 18.983 Z" stroke-linecap="round" />
</g>
		<g transform="matrix(1 0 0 1 -28.81 2.95)"  >
<path style="stroke: none; stroke-width: 1; stroke-dasharray: none; stroke-linecap: butt; stroke-dashoffset: 0; stroke-linejoin: miter; stroke-miterlimit: 4; fill: rgb(255,255,255); fill-rule: nonzero; opacity: 1;" vector-effect="non-scaling-stroke"  transform=" translate(-26.19, -16.95)" d="M 30.7416 26.345 C 30.7416 26.5091 30.6754 26.6079 30.5113 26.6079 C 30.4125 26.6079 30.2483 26.4438 30.0516 26.1465 C 29.8539 25.8492 29.6898 25.6842 29.4931 25.6507 C 29.066 26.0477 28.639 26.4438 28.2119 26.8399 C 27.686 27.2687 27.161 27.4663 26.6678 27.4663 C 26.5037 27.4663 26.4049 27.3675 26.4384 27.1699 C 26.6678 26.9387 26.8646 26.7067 27.0949 26.4764 C 27.3251 26.1791 27.4566 25.8818 27.4566 25.5854 L 27.4566 23.8686 L 27.4566 22.1527 C 27.4566 21.7892 27.4566 21.2616 27.4893 20.5347 C 27.5219 19.8086 27.5219 19.2802 27.5219 18.9176 C 27.5219 18.7199 27.4893 18.5868 27.3905 18.4879 C 26.8981 18.8514 26.471 19.2802 26.1755 19.7751 C 25.5843 20.6997 25.1237 21.1946 24.8281 21.1619 C 24.5326 21.1619 23.9749 20.7658 23.2188 19.9736 C 22.3655 19.049 21.8397 18.5541 21.6094 18.4226 C 21.9376 17.6295 22.0691 17.0358 22.0691 16.607 L 22.0364 9.50957 C 22.9893 8.98199 23.7773 8.4862 24.402 8.05743 C 24.8617 7.72747 25.354 7.36401 25.8464 7.03405 C 26.471 6.63794 27.0296 6.44031 27.4566 6.44031 C 27.8828 6.44031 28.5401 6.77026 29.3942 7.39752 C 30.2483 8.05743 30.708 8.58587 30.7742 9.04729 C 30.7742 9.24578 30.7416 9.50957 30.6427 9.84038 C 30.5439 10.1695 30.4778 10.4341 30.4778 10.5991 L 30.4125 23.8033 C 30.4125 24.4959 30.4778 25.1231 30.6101 25.6842 C 30.708 26.0803 30.7416 26.278 30.7416 26.345 Z M 27.5219 15.9463 L 27.5554 10.203 C 27.5554 10.0045 27.3578 9.80687 26.9634 9.60924 C 26.6352 9.44341 26.3722 9.34459 26.1428 9.34459 C 25.4855 9.34459 25.1237 10.1695 25.1237 11.7875 C 25.1237 12.2497 25.1572 12.9758 25.1899 13.933 C 25.2552 14.8902 25.2552 15.6163 25.2552 16.0786 L 25.2552 16.772 L 25.2552 17.4654 C 25.2552 18.1245 25.4855 18.4553 25.9787 18.4553 C 26.4049 18.4553 26.7666 18.1245 27.0622 17.5307 C 27.3578 17.0358 27.5219 16.5074 27.5219 15.9463 Z" stroke-linecap="round" />
</g>
		<g transform="matrix(1 0 0 1 -35.58 -11.26)"  >
<path style="stroke: none; stroke-width: 1; stroke-dasharray: none; stroke-linecap: butt; stroke-dashoffset: 0; stroke-linejoin: miter; stroke-miterlimit: 4; fill: rgb(255,255,255); fill-rule: nonzero; opacity: 1;" vector-effect="non-scaling-stroke"  transform=" translate(-19.42, -2.74)" d="M 19.6727 3.99745 C 19.5739 4.39357 19.3436 4.69087 18.9818 4.8885 C 18.5221 5.15315 18.0624 5.02082 17.7668 4.5912 C 17.6027 4.36006 17.5366 4.09626 17.5039 3.79982 C 17.5039 3.46901 17.6027 3.17256 17.7342 2.87526 C 18.358 1.81838 19.2456 1.05965 20.428 0.597374 C 20.5921 0.531211 20.8215 0.498559 20.9856 0.465908 C 21.2485 0.432397 21.4135 0.696188 21.3156 0.927328 C 21.2821 1.02614 21.1832 1.12582 21.1171 1.19198 C 20.3618 1.81838 19.9683 2.64412 19.7388 3.56782 C 19.7388 3.73366 19.7053 3.86512 19.6727 3.99745 Z" stroke-linecap="round" />
</g>
		<g transform="matrix(1 0 0 1 -36.48 -0.23)"  >
<path style="stroke: none; stroke-width: 1; stroke-dasharray: none; stroke-linecap: butt; stroke-dashoffset: 0; stroke-linejoin: miter; stroke-miterlimit: 4; fill: rgb(255,255,255); fill-rule: nonzero; opacity: 1;" vector-effect="non-scaling-stroke"  transform=" translate(-18.52, -13.77)" d="M 20.8558 18.7527 C 20.7569 19.0164 20.4946 19.5114 20.0009 20.1713 C 19.4754 20.8982 19.146 21.2608 18.9491 21.2608 C 18.7848 21.2608 18.292 20.8647 17.469 20.1051 C 16.6476 19.3464 16.2529 18.8841 16.2529 18.7527 C 16.2529 18.6203 16.3518 18.3565 16.516 17.9596 C 16.6803 17.5643 16.7792 17.3005 16.8119 17.2008 C 16.9762 16.5409 17.0751 15.6499 17.1077 14.4942 C 17.0751 15.6499 17.0751 14.7253 17.1077 11.754 L 17.1077 11.3588 C 17.1404 11.1603 17.1404 11.0279 17.1404 10.9626 C 17.1404 10.7315 17.1404 10.533 17.1077 10.4007 C 17.0751 10.2692 16.9108 10.0046 16.6149 9.64196 C 16.3191 9.27849 16.1875 8.98119 16.1875 8.78356 C 16.1875 8.58507 16.4834 8.12365 17.0751 7.36407 C 17.6668 6.638 18.028 6.27539 18.1931 6.27539 C 18.4227 6.27539 18.8837 6.57183 19.6062 7.16644 C 20.3303 7.76019 20.6915 8.1563 20.6915 8.38744 C 20.6915 8.51977 20.5926 8.7174 20.4283 8.98119 C 20.2314 9.24584 20.1325 9.41082 20.0998 9.54314 C 20.0336 9.80693 20.0336 10.6318 20.0009 12.0187 L 20.0009 14.4942 L 20.0009 17.0032 C 20.0009 17.5308 20.2641 18.1254 20.8558 18.7527 Z" stroke-linecap="round" />
</g>
		<g transform="matrix(1 0 0 1 -50.78 4.09)"  >
<path style="stroke: none; stroke-width: 1; stroke-dasharray: none; stroke-linecap: butt; stroke-dashoffset: 0; stroke-linejoin: miter; stroke-miterlimit: 4; fill: rgb(255,255,255); fill-rule: nonzero; opacity: 1;" vector-effect="non-scaling-stroke"  transform=" translate(-4.22, -18.09)" d="M 4.26639 18.1054 C 4.03611 18.303 4.458 17.8871 4.19507 18.1518 L 4.12891 18.1518 C 4.42535 17.8545 4.2724 18.1535 4.26639 18.1054 Z" stroke-linecap="round" />
</g>
		<g transform="matrix(1 0 0 1 -46.97 -3.35)"  >
<path style="stroke: none; stroke-width: 1; stroke-dasharray: none; stroke-linecap: butt; stroke-dashoffset: 0; stroke-linejoin: miter; stroke-miterlimit: 4; fill: rgb(255,255,255); fill-rule: nonzero; opacity: 1;" vector-effect="non-scaling-stroke"  transform=" translate(-8.03, -10.65)" d="M 15.3721 14.0617 C 15.1745 14.0617 15.0104 14.2267 14.9777 14.5902 C 14.945 14.689 14.9459 14.8213 14.9459 14.9863 C 14.9459 15.6135 14.7818 16.2399 14.4853 16.8345 C 14.2233 17.363 13.9268 17.6929 13.5986 17.8579 C 13.4671 17.9232 13.3348 17.9576 13.1707 17.9576 C 12.711 17.9576 12.0872 17.7256 11.2984 17.3295 C 10.4778 16.9007 9.91926 16.5046 9.55751 16.1411 C 9.68898 15.9435 9.78865 15.745 9.85395 15.6135 C 10.2157 14.8866 10.4125 14.2602 10.3798 13.7318 L 10.3798 13.5994 C 10.3463 12.247 10.281 10.7278 10.1169 8.97837 C 10.0516 8.21964 9.88661 6.70048 9.62453 4.38994 C 9.55837 3.73003 9.52572 3.40008 9.52572 3.43273 C 9.49307 3.26775 9.49221 3.13628 9.45955 3.03661 C 9.39339 2.90429 9.29544 2.80547 9.13132 2.70666 C 8.9672 2.60784 8.77043 2.60784 8.63896 2.60784 C 8.54015 2.60784 8.47485 2.64049 8.4422 2.64049 L 8.40782 2.64049 L 8.37603 2.64049 C 8.08045 2.64049 7.52107 2.21173 6.66697 1.32068 C 5.84638 0.429628 5.09024 0 4.46642 0 C 4.26965 0 3.94141 0.23114 3.48171 0.660768 C 3.38289 0.759582 3.28408 0.825745 3.18527 0.957212 C 2.42998 1.71679 2.03644 2.11291 1.97028 2.14556 C 1.83967 2.27789 1.70734 2.3767 1.57588 2.47552 C 1.47706 2.57519 1.41176 2.64049 1.37825 2.64049 C 1.3456 2.674 1.3138 2.70666 1.28115 2.74017 C 0.427052 3.49889 0.00000215065 4.22496 0.00000215065 4.91838 C 0.00000215065 4.95103 -0.000857453 5.0172 0.0317944 5.08336 C -0.000857453 5.24834 0.16412 5.57829 0.525867 6.00792 C 0.886754 6.43669 1.14969 6.63518 1.34646 6.63518 C 1.44527 6.63518 1.57588 6.60167 1.70734 6.50285 C 1.93677 6.37052 2.1997 6.10673 2.56144 5.74327 C 3.08645 5.14952 3.35024 4.72075 3.35024 4.4561 C 3.35024 4.22496 3.21878 3.96117 2.95584 3.63122 C 2.82524 3.43273 2.72642 3.26775 2.66112 3.13628 C 2.59496 3.03661 2.56144 2.90429 2.56144 2.83898 C 2.56144 2.80547 2.59496 2.74017 2.62761 2.60784 C 2.66112 2.50903 2.69377 2.44287 2.72642 2.44287 C 2.9885 2.44287 3.4164 2.70666 3.97406 3.20159 C 4.63139 3.79619 5.05844 4.1588 5.25521 4.22496 C 5.25521 4.29113 5.02493 4.52226 4.59788 4.81957 C 4.46642 4.98455 4.13818 5.21568 3.64497 5.57829 C 3.5135 5.67796 3.41555 5.74327 3.31673 5.80943 C 3.25143 5.87559 3.21878 5.94176 3.21878 5.97441 C 3.21878 6.27171 3.34938 6.43669 3.64497 6.43669 C 3.71113 6.43669 3.77729 6.40404 3.87611 6.30522 C 3.97406 6.20555 4.07202 6.1729 4.17083 6.1729 C 4.53172 6.1729 4.79465 6.70048 4.92612 7.79002 C 5.02493 8.45078 5.05758 9.14334 5.05758 9.86942 L 5.05758 10.0679 C 4.89347 10.2329 4.73021 10.3979 4.56523 10.5628 C 4.53258 10.5963 4.49993 10.629 4.49993 10.6617 C 4.33581 10.8601 4.23699 11.0251 4.23699 11.1901 C 4.23699 11.3551 4.3676 11.4539 4.66319 11.4874 C 4.95877 11.52 5.0911 11.5862 5.12375 11.6524 C 5.28872 12.0811 5.35403 12.8072 5.35403 13.8306 C 5.35403 14.5575 5.25521 15.1839 5.02579 15.7124 C 4.89433 16.075 4.59788 16.6361 4.17083 17.363 C 4.10467 17.4618 3.64497 18.0229 2.79087 19.0128 C 2.10174 19.8385 1.77265 20.3661 1.77265 20.5981 C 1.77265 21.0269 1.87146 21.2571 2.03558 21.2571 C 2.33116 20.9607 2.62761 20.7296 2.85789 20.5646 C 3.28494 20.202 3.64497 19.9047 3.9079 19.7397 C 4.59788 19.3101 5.35403 19.0789 6.10931 19.0789 C 6.66783 19.0789 7.48842 19.3762 8.53929 19.9373 C 9.32809 20.3996 10.116 20.861 10.904 21.2906 C 11.4298 21.2571 12.0219 21.0269 12.6465 20.5646 C 13.1389 20.202 13.6639 19.707 14.1889 19.0463 C 15.4374 17.5941 16.0286 16.3723 16.0612 15.3815 C 15.9959 14.524 15.7991 14.0617 15.3721 14.0617 Z M 8.77043 15.6135 C 8.73692 15.6135 8.70341 15.6462 8.67076 15.6462 C 8.50664 15.9108 8.34338 16.0423 8.17926 16.1085 C 7.88368 16.2073 7.58724 16.3723 7.22549 16.6034 C 6.69962 16.9995 6.4049 17.2307 6.33874 17.2642 C 6.27257 17.2968 6.23992 17.3295 6.20727 17.3295 L 5.94434 17.3295 L 5.91254 16.9995 C 6.10931 16.8345 6.30694 16.6696 6.50371 16.5372 L 6.50371 16.5046 C 6.7993 16.2735 7.09488 16.0423 7.39047 15.7777 C 7.55458 15.6462 7.68605 15.5474 7.85017 15.4159 C 8.37603 14.9528 8.63896 14.4578 8.63896 13.9303 L 8.63896 13.7653 L 7.75221 5.38066 C 7.7187 5.3145 7.7187 5.21568 7.7187 5.11687 C 7.7187 4.85222 7.81666 4.62194 7.98163 4.38994 C 8.11224 4.22496 8.30987 4.05999 8.57366 3.89501 L 8.63896 3.89501 C 8.67162 3.89501 8.70427 4.02733 8.77043 4.29113 C 9.09867 7.32774 9.32809 9.63828 9.42604 11.1566 C 9.55751 12.7746 9.62453 13.7318 9.62453 14.0291 C 9.62453 14.2602 9.52572 14.5575 9.3616 14.9201 C 9.16397 15.3489 8.9672 15.5474 8.77043 15.6135 Z" stroke-linecap="round" />
</g>
</g>
</g>
</svg>